<svg width="458" height="352" viewBox="0 0 458 352" fill="none" xmlns="http://www.w3.org/2000/svg">
<g filter="url(#filter0_d_433_992)">
<path d="M50 49C50 35.7452 60.7452 25 74 25H384C397.255 25 408 35.7452 408 49V253C408 266.255 397.255 277 384 277H74C60.7452 277 50 266.255 50 253V49Z" fill="white"/>
<g clip-path="url(#clip0_433_992)">
<path d="M237.89 81.319L261.629 122.435C262.529 123.992 263.002 125.759 263 127.558C263 133.225 258.406 137.819 252.738 137.819H229L220.791 106.999L229 76.1797C232.801 76.1797 236.117 78.248 237.89 81.319Z" fill="#3B4145"/>
<path d="M220.11 81.319L196.371 122.435C195.471 123.992 194.998 125.759 195 127.558C195 133.225 199.594 137.819 205.262 137.819H229V76.1797C225.199 76.1797 221.883 78.248 220.11 81.319Z" fill="#525A61"/>
<path d="M258.075 124.487L234.336 83.371C233.266 81.5171 231.302 80.3473 229.177 80.2871L249.48 133.714H252.739C256.133 133.714 258.896 130.952 258.896 127.557C258.895 126.48 258.612 125.421 258.075 124.487Z" fill="#FFB751"/>
<path d="M254.082 124.487C254.546 125.418 254.791 126.479 254.791 127.558C254.791 130.952 252.409 133.714 249.479 133.714H205.261C201.867 133.714 199.104 130.952 199.104 127.558C199.105 126.48 199.388 125.421 199.925 124.487L223.664 83.3712C224.764 81.4667 226.808 80.2832 229 80.2832C229.059 80.2832 229.117 80.2845 229.176 80.2873C231 80.3585 232.684 81.5255 233.602 83.3712L254.082 124.487Z" fill="#FFD764"/>
<path d="M229 120.033V126.874C230.89 126.874 232.421 125.343 232.421 123.454C232.421 121.564 230.89 120.033 229 120.033Z" fill="#3B4145"/>
<path d="M229 120.033C229.378 120.033 229.684 121.564 229.684 123.454C229.684 125.343 229.378 126.874 229 126.874C227.111 126.874 225.58 125.343 225.58 123.454C225.58 121.564 227.111 120.033 229 120.033Z" fill="#525A61"/>
<path d="M229 90.6172V115.929C230.89 115.929 232.421 114.397 232.421 112.509V94.0378C232.421 92.1483 230.89 90.6172 229 90.6172Z" fill="#3B4145"/>
<path d="M229 90.6172C229.378 90.6172 229.684 92.1483 229.684 94.0378V112.509C229.684 114.397 229.378 115.929 229 115.929C227.111 115.929 225.58 114.397 225.58 112.509V94.0378C225.58 92.1483 227.111 90.6172 229 90.6172Z" fill="#525A61"/>
</g>
<path d="M159.765 190V176.368H154.389V173.2H169.029V176.368H163.653V190H159.765ZM178.705 176.896C179.729 176.896 180.641 177.104 181.441 177.52C182.257 177.92 182.897 178.544 183.361 179.392C183.825 180.224 184.057 181.296 184.057 182.608V190H180.313V183.184C180.313 182.144 180.081 181.376 179.617 180.88C179.169 180.384 178.529 180.136 177.697 180.136C177.105 180.136 176.569 180.264 176.089 180.52C175.625 180.76 175.257 181.136 174.985 181.648C174.729 182.16 174.601 182.816 174.601 183.616V190H170.857V172.192H174.601V180.664L173.761 179.584C174.225 178.72 174.889 178.056 175.753 177.592C176.617 177.128 177.601 176.896 178.705 176.896ZM187.451 190V177.088H191.195V190H187.451ZM189.323 175.288C188.635 175.288 188.075 175.088 187.643 174.688C187.211 174.288 186.995 173.792 186.995 173.2C186.995 172.608 187.211 172.112 187.643 171.712C188.075 171.312 188.635 171.112 189.323 171.112C190.011 171.112 190.571 171.304 191.003 171.688C191.435 172.056 191.651 172.536 191.651 173.128C191.651 173.752 191.435 174.272 191.003 174.688C190.587 175.088 190.027 175.288 189.323 175.288ZM199.013 190.192C197.909 190.192 196.845 190.064 195.821 189.808C194.813 189.536 194.013 189.2 193.421 188.8L194.669 186.112C195.261 186.48 195.957 186.784 196.757 187.024C197.573 187.248 198.373 187.36 199.157 187.36C200.021 187.36 200.629 187.256 200.981 187.048C201.349 186.84 201.533 186.552 201.533 186.184C201.533 185.88 201.389 185.656 201.101 185.512C200.829 185.352 200.461 185.232 199.997 185.152C199.533 185.072 199.021 184.992 198.461 184.912C197.917 184.832 197.365 184.728 196.805 184.6C196.245 184.456 195.733 184.248 195.269 183.976C194.805 183.704 194.429 183.336 194.141 182.872C193.869 182.408 193.733 181.808 193.733 181.072C193.733 180.256 193.965 179.536 194.429 178.912C194.909 178.288 195.597 177.8 196.493 177.448C197.389 177.08 198.461 176.896 199.709 176.896C200.589 176.896 201.485 176.992 202.397 177.184C203.309 177.376 204.069 177.656 204.677 178.024L203.429 180.688C202.805 180.32 202.173 180.072 201.533 179.944C200.909 179.8 200.301 179.728 199.709 179.728C198.877 179.728 198.269 179.84 197.885 180.064C197.501 180.288 197.309 180.576 197.309 180.928C197.309 181.248 197.445 181.488 197.717 181.648C198.005 181.808 198.381 181.936 198.845 182.032C199.309 182.128 199.813 182.216 200.357 182.296C200.917 182.36 201.477 182.464 202.037 182.608C202.597 182.752 203.101 182.96 203.549 183.232C204.013 183.488 204.389 183.848 204.677 184.312C204.965 184.76 205.109 185.352 205.109 186.088C205.109 186.888 204.869 187.6 204.389 188.224C203.909 188.832 203.213 189.312 202.301 189.664C201.405 190.016 200.309 190.192 199.013 190.192ZM214.216 190V177.088H217.96V190H214.216ZM216.088 175.288C215.4 175.288 214.84 175.088 214.408 174.688C213.976 174.288 213.76 173.792 213.76 173.2C213.76 172.608 213.976 172.112 214.408 171.712C214.84 171.312 215.4 171.112 216.088 171.112C216.776 171.112 217.336 171.304 217.768 171.688C218.2 172.056 218.416 172.536 218.416 173.128C218.416 173.752 218.2 174.272 217.768 174.688C217.352 175.088 216.792 175.288 216.088 175.288ZM225.779 190.192C224.675 190.192 223.611 190.064 222.587 189.808C221.579 189.536 220.779 189.2 220.187 188.8L221.435 186.112C222.027 186.48 222.723 186.784 223.523 187.024C224.339 187.248 225.139 187.36 225.923 187.36C226.787 187.36 227.395 187.256 227.747 187.048C228.115 186.84 228.299 186.552 228.299 186.184C228.299 185.88 228.155 185.656 227.867 185.512C227.595 185.352 227.227 185.232 226.763 185.152C226.299 185.072 225.787 184.992 225.227 184.912C224.683 184.832 224.131 184.728 223.571 184.6C223.011 184.456 222.499 184.248 222.035 183.976C221.571 183.704 221.195 183.336 220.907 182.872C220.635 182.408 220.499 181.808 220.499 181.072C220.499 180.256 220.731 179.536 221.195 178.912C221.675 178.288 222.363 177.8 223.259 177.448C224.155 177.08 225.227 176.896 226.475 176.896C227.355 176.896 228.251 176.992 229.163 177.184C230.075 177.376 230.835 177.656 231.443 178.024L230.195 180.688C229.571 180.32 228.939 180.072 228.299 179.944C227.675 179.8 227.067 179.728 226.475 179.728C225.643 179.728 225.035 179.84 224.651 180.064C224.267 180.288 224.075 180.576 224.075 180.928C224.075 181.248 224.211 181.488 224.483 181.648C224.771 181.808 225.147 181.936 225.611 182.032C226.075 182.128 226.579 182.216 227.123 182.296C227.683 182.36 228.243 182.464 228.803 182.608C229.363 182.752 229.867 182.96 230.315 183.232C230.779 183.488 231.155 183.848 231.443 184.312C231.731 184.76 231.875 185.352 231.875 186.088C231.875 186.888 231.635 187.6 231.155 188.224C230.675 188.832 229.979 189.312 229.067 189.664C228.171 190.016 227.075 190.192 225.779 190.192ZM248.83 176.896C249.854 176.896 250.766 177.104 251.566 177.52C252.382 177.92 253.022 178.544 253.486 179.392C253.95 180.224 254.182 181.296 254.182 182.608V190H250.438V183.184C250.438 182.144 250.206 181.376 249.742 180.88C249.294 180.384 248.654 180.136 247.822 180.136C247.23 180.136 246.694 180.264 246.214 180.52C245.75 180.76 245.382 181.136 245.11 181.648C244.854 182.16 244.726 182.816 244.726 183.616V190H240.982V177.088H244.558V180.664L243.886 179.584C244.35 178.72 245.014 178.056 245.878 177.592C246.742 177.128 247.726 176.896 248.83 176.896ZM263.813 190.192C262.437 190.192 261.213 189.904 260.141 189.328C259.085 188.752 258.245 187.968 257.621 186.976C257.013 185.968 256.709 184.824 256.709 183.544C256.709 182.248 257.013 181.104 257.621 180.112C258.245 179.104 259.085 178.32 260.141 177.76C261.213 177.184 262.437 176.896 263.813 176.896C265.173 176.896 266.389 177.184 267.461 177.76C268.533 178.32 269.373 179.096 269.981 180.088C270.589 181.08 270.893 182.232 270.893 183.544C270.893 184.824 270.589 185.968 269.981 186.976C269.373 187.968 268.533 188.752 267.461 189.328C266.389 189.904 265.173 190.192 263.813 190.192ZM263.813 187.12C264.437 187.12 264.997 186.976 265.493 186.688C265.989 186.4 266.381 185.992 266.669 185.464C266.957 184.92 267.101 184.28 267.101 183.544C267.101 182.792 266.957 182.152 266.669 181.624C266.381 181.096 265.989 180.688 265.493 180.4C264.997 180.112 264.437 179.968 263.813 179.968C263.189 179.968 262.629 180.112 262.133 180.4C261.637 180.688 261.237 181.096 260.933 181.624C260.645 182.152 260.501 182.792 260.501 183.544C260.501 184.28 260.645 184.92 260.933 185.464C261.237 185.992 261.637 186.4 262.133 186.688C262.629 186.976 263.189 187.12 263.813 187.12ZM278.676 190.192C277.156 190.192 275.972 189.808 275.124 189.04C274.276 188.256 273.852 187.096 273.852 185.56V174.232H277.596V185.512C277.596 186.056 277.74 186.48 278.028 186.784C278.316 187.072 278.708 187.216 279.204 187.216C279.796 187.216 280.3 187.056 280.716 186.736L281.724 189.376C281.34 189.648 280.876 189.856 280.332 190C279.804 190.128 279.252 190.192 278.676 190.192ZM271.86 180.256V177.376H280.812V180.256H271.86ZM298.543 190V187.48L298.303 186.928V182.416C298.303 181.616 298.055 180.992 297.559 180.544C297.079 180.096 296.335 179.872 295.327 179.872C294.639 179.872 293.959 179.984 293.287 180.208C292.631 180.416 292.071 180.704 291.607 181.072L290.263 178.456C290.967 177.96 291.815 177.576 292.807 177.304C293.799 177.032 294.807 176.896 295.831 176.896C297.799 176.896 299.327 177.36 300.415 178.288C301.503 179.216 302.047 180.664 302.047 182.632V190H298.543ZM294.607 190.192C293.599 190.192 292.735 190.024 292.015 189.688C291.295 189.336 290.743 188.864 290.359 188.272C289.975 187.68 289.783 187.016 289.783 186.28C289.783 185.512 289.967 184.84 290.335 184.264C290.719 183.688 291.319 183.24 292.135 182.92C292.951 182.584 294.015 182.416 295.327 182.416H298.759V184.6H295.735C294.855 184.6 294.247 184.744 293.911 185.032C293.591 185.32 293.431 185.68 293.431 186.112C293.431 186.592 293.615 186.976 293.983 187.264C294.367 187.536 294.887 187.672 295.543 187.672C296.167 187.672 296.727 187.528 297.223 187.24C297.719 186.936 298.079 186.496 298.303 185.92L298.879 187.648C298.607 188.48 298.111 189.112 297.391 189.544C296.671 189.976 295.743 190.192 294.607 190.192ZM155.611 222V204.192H159.355V222H155.611ZM169.238 222.192C167.766 222.192 166.47 221.904 165.35 221.328C164.246 220.752 163.39 219.968 162.782 218.976C162.174 217.968 161.87 216.824 161.87 215.544C161.87 214.248 162.166 213.104 162.758 212.112C163.366 211.104 164.19 210.32 165.23 209.76C166.27 209.184 167.446 208.896 168.758 208.896C170.022 208.896 171.158 209.168 172.166 209.712C173.19 210.24 173.998 211.008 174.59 212.016C175.182 213.008 175.478 214.2 175.478 215.592C175.478 215.736 175.47 215.904 175.454 216.096C175.438 216.272 175.422 216.44 175.406 216.6H164.918V214.416H173.438L171.998 215.064C171.998 214.392 171.862 213.808 171.59 213.312C171.318 212.816 170.942 212.432 170.462 212.16C169.982 211.872 169.422 211.728 168.782 211.728C168.142 211.728 167.574 211.872 167.078 212.16C166.598 212.432 166.222 212.824 165.95 213.336C165.678 213.832 165.542 214.424 165.542 215.112V215.688C165.542 216.392 165.694 217.016 165.998 217.56C166.318 218.088 166.758 218.496 167.318 218.784C167.894 219.056 168.566 219.192 169.334 219.192C170.022 219.192 170.622 219.088 171.134 218.88C171.662 218.672 172.142 218.36 172.574 217.944L174.566 220.104C173.974 220.776 173.23 221.296 172.334 221.664C171.438 222.016 170.406 222.192 169.238 222.192ZM184.042 226.848C182.826 226.848 181.65 226.696 180.514 226.392C179.394 226.104 178.458 225.664 177.706 225.072L179.194 222.384C179.738 222.832 180.426 223.184 181.258 223.44C182.106 223.712 182.938 223.848 183.754 223.848C185.082 223.848 186.042 223.552 186.634 222.96C187.242 222.368 187.546 221.488 187.546 220.32V218.376L187.786 215.136L187.738 211.872V209.088H191.29V219.84C191.29 222.24 190.666 224.008 189.418 225.144C188.17 226.28 186.378 226.848 184.042 226.848ZM183.466 221.376C182.266 221.376 181.178 221.12 180.202 220.608C179.242 220.08 178.466 219.352 177.874 218.424C177.298 217.48 177.01 216.384 177.01 215.136C177.01 213.872 177.298 212.776 177.874 211.848C178.466 210.904 179.242 210.176 180.202 209.664C181.178 209.152 182.266 208.896 183.466 208.896C184.554 208.896 185.514 209.12 186.346 209.568C187.178 210 187.826 210.68 188.29 211.608C188.754 212.52 188.986 213.696 188.986 215.136C188.986 216.56 188.754 217.736 188.29 218.664C187.826 219.576 187.178 220.256 186.346 220.704C185.514 221.152 184.554 221.376 183.466 221.376ZM184.21 218.304C184.866 218.304 185.45 218.176 185.962 217.92C186.474 217.648 186.874 217.272 187.162 216.792C187.45 216.312 187.594 215.76 187.594 215.136C187.594 214.496 187.45 213.944 187.162 213.48C186.874 213 186.474 212.632 185.962 212.376C185.45 212.104 184.866 211.968 184.21 211.968C183.554 211.968 182.97 212.104 182.458 212.376C181.946 212.632 181.538 213 181.234 213.48C180.946 213.944 180.802 214.496 180.802 215.136C180.802 215.76 180.946 216.312 181.234 216.792C181.538 217.272 181.946 217.648 182.458 217.92C182.97 218.176 183.554 218.304 184.21 218.304ZM202.695 222V219.48L202.455 218.928V214.416C202.455 213.616 202.207 212.992 201.711 212.544C201.231 212.096 200.487 211.872 199.479 211.872C198.791 211.872 198.111 211.984 197.439 212.208C196.783 212.416 196.223 212.704 195.759 213.072L194.415 210.456C195.119 209.96 195.967 209.576 196.959 209.304C197.951 209.032 198.959 208.896 199.983 208.896C201.951 208.896 203.479 209.36 204.567 210.288C205.655 211.216 206.199 212.664 206.199 214.632V222H202.695ZM198.759 222.192C197.751 222.192 196.887 222.024 196.167 221.688C195.447 221.336 194.895 220.864 194.511 220.272C194.127 219.68 193.935 219.016 193.935 218.28C193.935 217.512 194.119 216.84 194.487 216.264C194.871 215.688 195.471 215.24 196.287 214.92C197.103 214.584 198.167 214.416 199.479 214.416H202.911V216.6H199.887C199.007 216.6 198.399 216.744 198.063 217.032C197.743 217.32 197.583 217.68 197.583 218.112C197.583 218.592 197.767 218.976 198.135 219.264C198.519 219.536 199.039 219.672 199.695 219.672C200.319 219.672 200.879 219.528 201.375 219.24C201.871 218.936 202.231 218.496 202.455 217.92L203.031 219.648C202.759 220.48 202.263 221.112 201.543 221.544C200.823 221.976 199.895 222.192 198.759 222.192ZM209.587 222V204.192H213.331V222H209.587ZM231.523 222V219.48L231.283 218.928V214.416C231.283 213.616 231.035 212.992 230.539 212.544C230.059 212.096 229.315 211.872 228.307 211.872C227.619 211.872 226.939 211.984 226.267 212.208C225.611 212.416 225.051 212.704 224.587 213.072L223.243 210.456C223.947 209.96 224.795 209.576 225.787 209.304C226.779 209.032 227.787 208.896 228.811 208.896C230.779 208.896 232.307 209.36 233.395 210.288C234.483 211.216 235.027 212.664 235.027 214.632V222H231.523ZM227.587 222.192C226.579 222.192 225.715 222.024 224.995 221.688C224.275 221.336 223.723 220.864 223.339 220.272C222.955 219.68 222.763 219.016 222.763 218.28C222.763 217.512 222.947 216.84 223.315 216.264C223.699 215.688 224.299 215.24 225.115 214.92C225.931 214.584 226.995 214.416 228.307 214.416H231.739V216.6H228.715C227.835 216.6 227.227 216.744 226.891 217.032C226.571 217.32 226.411 217.68 226.411 218.112C226.411 218.592 226.595 218.976 226.963 219.264C227.347 219.536 227.867 219.672 228.523 219.672C229.147 219.672 229.707 219.528 230.203 219.24C230.699 218.936 231.059 218.496 231.283 217.92L231.859 219.648C231.587 220.48 231.091 221.112 230.371 221.544C229.651 221.976 228.723 222.192 227.587 222.192ZM244.053 222.192C242.837 222.192 241.741 221.92 240.765 221.376C239.789 220.816 239.013 220.04 238.437 219.048C237.877 218.056 237.597 216.888 237.597 215.544C237.597 214.184 237.877 213.008 238.437 212.016C239.013 211.024 239.789 210.256 240.765 209.712C241.741 209.168 242.837 208.896 244.053 208.896C245.141 208.896 246.093 209.136 246.909 209.616C247.725 210.096 248.357 210.824 248.805 211.8C249.253 212.776 249.477 214.024 249.477 215.544C249.477 217.048 249.261 218.296 248.829 219.288C248.397 220.264 247.773 220.992 246.957 221.472C246.157 221.952 245.189 222.192 244.053 222.192ZM244.701 219.12C245.309 219.12 245.861 218.976 246.357 218.688C246.853 218.4 247.245 217.992 247.533 217.464C247.837 216.92 247.989 216.28 247.989 215.544C247.989 214.792 247.837 214.152 247.533 213.624C247.245 213.096 246.853 212.688 246.357 212.4C245.861 212.112 245.309 211.968 244.701 211.968C244.077 211.968 243.517 212.112 243.021 212.4C242.525 212.688 242.125 213.096 241.821 213.624C241.533 214.152 241.389 214.792 241.389 215.544C241.389 216.28 241.533 216.92 241.821 217.464C242.125 217.992 242.525 218.4 243.021 218.688C243.517 218.976 244.077 219.12 244.701 219.12ZM248.085 222V219.36L248.157 215.52L247.917 211.704V204.192H251.661V222H248.085ZM258.63 222L253.206 209.088H257.07L261.582 220.2H259.662L264.342 209.088H267.942L262.494 222H258.63ZM269.47 222V209.088H273.214V222H269.47ZM271.342 207.288C270.654 207.288 270.094 207.088 269.662 206.688C269.23 206.288 269.014 205.792 269.014 205.2C269.014 204.608 269.23 204.112 269.662 203.712C270.094 203.312 270.654 203.112 271.342 203.112C272.03 203.112 272.59 203.304 273.022 203.688C273.454 204.056 273.67 204.536 273.67 205.128C273.67 205.752 273.454 206.272 273.022 206.688C272.606 207.088 272.046 207.288 271.342 207.288ZM282.929 222.192C281.537 222.192 280.297 221.912 279.209 221.352C278.121 220.776 277.265 219.984 276.641 218.976C276.033 217.968 275.729 216.824 275.729 215.544C275.729 214.248 276.033 213.104 276.641 212.112C277.265 211.104 278.121 210.32 279.209 209.76C280.297 209.184 281.537 208.896 282.929 208.896C284.289 208.896 285.473 209.184 286.481 209.76C287.489 210.32 288.233 211.128 288.713 212.184L285.809 213.744C285.473 213.136 285.049 212.688 284.537 212.4C284.041 212.112 283.497 211.968 282.905 211.968C282.265 211.968 281.689 212.112 281.177 212.4C280.665 212.688 280.257 213.096 279.953 213.624C279.665 214.152 279.521 214.792 279.521 215.544C279.521 216.296 279.665 216.936 279.953 217.464C280.257 217.992 280.665 218.4 281.177 218.688C281.689 218.976 282.265 219.12 282.905 219.12C283.497 219.12 284.041 218.984 284.537 218.712C285.049 218.424 285.473 217.968 285.809 217.344L288.713 218.928C288.233 219.968 287.489 220.776 286.481 221.352C285.473 221.912 284.289 222.192 282.929 222.192ZM297.113 222.192C295.641 222.192 294.345 221.904 293.225 221.328C292.121 220.752 291.265 219.968 290.657 218.976C290.049 217.968 289.745 216.824 289.745 215.544C289.745 214.248 290.041 213.104 290.633 212.112C291.241 211.104 292.065 210.32 293.105 209.76C294.145 209.184 295.321 208.896 296.633 208.896C297.897 208.896 299.033 209.168 300.041 209.712C301.065 210.24 301.873 211.008 302.465 212.016C303.057 213.008 303.353 214.2 303.353 215.592C303.353 215.736 303.345 215.904 303.329 216.096C303.313 216.272 303.297 216.44 303.281 216.6H292.793V214.416H301.313L299.873 215.064C299.873 214.392 299.737 213.808 299.465 213.312C299.193 212.816 298.817 212.432 298.337 212.16C297.857 211.872 297.297 211.728 296.657 211.728C296.017 211.728 295.449 211.872 294.953 212.16C294.473 212.432 294.097 212.824 293.825 213.336C293.553 213.832 293.417 214.424 293.417 215.112V215.688C293.417 216.392 293.569 217.016 293.873 217.56C294.193 218.088 294.633 218.496 295.193 218.784C295.769 219.056 296.441 219.192 297.209 219.192C297.897 219.192 298.497 219.088 299.009 218.88C299.537 218.672 300.017 218.36 300.449 217.944L302.441 220.104C301.849 220.776 301.105 221.296 300.209 221.664C299.313 222.016 298.281 222.192 297.113 222.192Z" fill="#111827"/>
</g>
<defs>
<filter id="filter0_d_433_992" x="0" y="0" width="458" height="352" filterUnits="userSpaceOnUse" color-interpolation-filters="sRGB">
<feFlood flood-opacity="0" result="BackgroundImageFix"/>
<feColorMatrix in="SourceAlpha" type="matrix" values="0 0 0 0 0 0 0 0 0 0 0 0 0 0 0 0 0 0 127 0" result="hardAlpha"/>
<feOffset dy="25"/>
<feGaussianBlur stdDeviation="25"/>
<feColorMatrix type="matrix" values="0 0 0 0 0 0 0 0 0 0 0 0 0 0 0 0 0 0 0.25 0"/>
<feBlend mode="normal" in2="BackgroundImageFix" result="effect1_dropShadow_433_992"/>
<feBlend mode="normal" in="SourceGraphic" in2="effect1_dropShadow_433_992" result="shape"/>
</filter>
<clipPath id="clip0_433_992">
<rect width="68" height="68" fill="white" transform="translate(195 73)"/>
</clipPath>
</defs>
</svg>
