<svg width="262" height="122" viewBox="0 0 262 122" fill="none" xmlns="http://www.w3.org/2000/svg">
<g filter="url(#filter0_dd_12_242)">
<path d="M15 57C15 34.9086 32.9086 17 55 17C77.0914 17 95 34.9086 95 57C95 79.0914 77.0914 97 55 97C32.9086 97 15 79.0914 15 57Z" fill="#FEB506"/>
<path d="M55 56C56.5913 56 58.1174 55.3679 59.2426 54.2426C60.3679 53.1174 61 51.5913 61 50C61 48.4087 60.3679 46.8826 59.2426 45.7574C58.1174 44.6321 56.5913 44 55 44C53.4087 44 51.8826 44.6321 50.7574 45.7574C49.6321 46.8826 49 48.4087 49 50C49 51.5913 49.6321 53.1174 50.7574 54.2426C51.8826 55.3679 53.4087 56 55 56ZM52.8578 58.25C48.2406 58.25 44.5 61.9906 44.5 66.6078C44.5 67.3766 45.1234 68 45.8922 68H64.1078C64.8766 68 65.5 67.3766 65.5 66.6078C65.5 61.9906 61.7594 58.25 57.1422 58.25H52.8578Z" fill="white"/>
</g>
<g filter="url(#filter1_dd_12_242)">
<path d="M63 29C63 17.9543 71.9543 9 83 9C94.0457 9 103 17.9543 103 29C103 40.0457 94.0457 49 83 49C71.9543 49 63 40.0457 63 29Z" fill="white"/>
<path d="M71 29C71 22.3726 76.3726 17 83 17C89.6274 17 95 22.3726 95 29C95 35.6274 89.6274 41 83 41C76.3726 41 71 35.6274 71 29Z" fill="#FEB506"/>
<path d="M89 28.125C89 30.818 86.314 33 83 33C82.1304 33 81.3054 32.85 80.5601 32.5805C80.2812 32.7844 79.8265 33.0633 79.2875 33.2977C78.725 33.5414 78.0476 33.75 77.375 33.75C77.2226 33.75 77.0867 33.6586 77.0281 33.518C76.9695 33.3773 77.0023 33.218 77.1078 33.1102L77.1148 33.1031C77.1218 33.0961 77.1312 33.0867 77.1453 33.0703C77.1711 33.0422 77.2109 32.9977 77.2601 32.9367C77.3562 32.8195 77.4851 32.6461 77.6164 32.4305C77.8507 32.0414 78.0734 31.5305 78.1179 30.9562C77.4148 30.1594 77 29.182 77 28.125C77 25.432 79.6859 23.25 83 23.25C86.314 23.25 89 25.432 89 28.125Z" fill="white"/>
</g>
<path d="M129 43C129 41.8954 129.895 41 131 41C132.105 41 133 41.8954 133 43C133 44.1046 132.105 45 131 45C129.895 45 129 44.1046 129 43Z" fill="#6B7280"/>
<path d="M127 57C127 54.7909 128.791 53 131 53C133.209 53 135 54.7909 135 57C135 59.2091 133.209 61 131 61C128.791 61 127 59.2091 127 57Z" fill="#6B7280"/>
<path d="M129 71C129 69.8954 129.895 69 131 69C132.105 69 133 69.8954 133 71C133 72.1046 132.105 73 131 73C129.895 73 129 72.1046 129 71Z" fill="#6B7280"/>
<g filter="url(#filter2_dd_12_242)">
<path d="M167 57C167 34.9086 184.909 17 207 17C229.091 17 247 34.9086 247 57C247 79.0914 229.091 97 207 97C184.909 97 167 79.0914 167 57Z" fill="#043767"/>
<path d="M207 56C205.409 56 203.883 55.3679 202.757 54.2426C201.632 53.1174 201 51.5913 201 50C201 48.4087 201.632 46.8826 202.757 45.7574C203.883 44.6321 205.409 44 207 44C208.591 44 210.117 44.6321 211.243 45.7574C212.368 46.8826 213 48.4087 213 50C213 51.5913 212.368 53.1174 211.243 54.2426C210.117 55.3679 208.591 56 207 56ZM206.302 60.8375L205.43 59.3844C205.13 58.8828 205.491 58.25 206.072 58.25H207H207.923C208.505 58.25 208.866 58.8875 208.566 59.3844L207.694 60.8375L209.259 66.6453L210.947 59.7594C211.041 59.3797 211.406 59.1312 211.786 59.2297C215.072 60.0547 217.5 63.0266 217.5 66.5609C217.5 67.3578 216.853 68 216.061 68H209.883C209.784 68 209.695 67.9812 209.611 67.9484L209.625 68H204.375L204.389 67.9484C204.305 67.9812 204.211 68 204.117 68H197.939C197.147 68 196.5 67.3531 196.5 66.5609C196.5 63.0219 198.933 60.05 202.214 59.2297C202.594 59.1359 202.959 59.3844 203.053 59.7594L204.741 66.6453L206.306 60.8375H206.302Z" fill="white"/>
</g>
<g filter="url(#filter3_dd_12_242)">
<path d="M135 21C135 12.1634 142.163 5 151 5H184.328C193.165 5 200.328 12.1634 200.328 21V25C200.328 33.8366 193.165 41 184.328 41H151C142.163 41 135 33.8366 135 25V21Z" fill="white"/>
<path d="M151 6H184.328C192.612 6 199.328 12.7157 199.328 21V25C199.328 33.2843 192.612 40 184.328 40H151C142.716 40 136 33.2843 136 25V21C136 12.7157 142.716 6 151 6Z" stroke="#043767" stroke-width="2"/>
<path d="M186.328 31H149V15H186.328V31Z" stroke="#E5E7EB"/>
<path d="M149.959 27V18.2727H155.43V19.4062H151.276V22.0653H155.145V23.1946H151.276V25.8665H155.482V27H149.959ZM158.093 20.4545L159.537 23.0028L160.995 20.4545H162.388L160.347 23.7273L162.405 27H161.012L159.537 24.554L158.067 27H156.669L158.706 23.7273L156.695 20.4545H158.093ZM163.696 29.4545V20.4545H164.941V21.5156H165.047C165.121 21.3793 165.228 21.2216 165.367 21.0426C165.506 20.8636 165.699 20.7074 165.946 20.5739C166.194 20.4375 166.52 20.3693 166.926 20.3693C167.455 20.3693 167.926 20.5028 168.341 20.7699C168.756 21.0369 169.081 21.4219 169.317 21.9247C169.556 22.4276 169.675 23.0327 169.675 23.7401C169.675 24.4474 169.557 25.054 169.321 25.5597C169.086 26.0625 168.762 26.4503 168.35 26.723C167.938 26.9929 167.468 27.1278 166.939 27.1278C166.542 27.1278 166.216 27.0611 165.963 26.9276C165.713 26.794 165.517 26.6378 165.375 26.4588C165.233 26.2798 165.124 26.1207 165.047 25.9815H164.971V29.4545H163.696ZM164.945 23.7273C164.945 24.1875 165.012 24.5909 165.145 24.9375C165.279 25.2841 165.472 25.5554 165.725 25.7514C165.978 25.9446 166.287 26.0412 166.654 26.0412C167.034 26.0412 167.353 25.9403 167.608 25.7386C167.864 25.5341 168.057 25.2571 168.188 24.9077C168.321 24.5582 168.388 24.1648 168.388 23.7273C168.388 23.2955 168.323 22.9077 168.192 22.5639C168.064 22.2202 167.871 21.9489 167.613 21.75C167.357 21.5511 167.037 21.4517 166.654 21.4517C166.284 21.4517 165.972 21.5469 165.716 21.7372C165.463 21.9276 165.272 22.1932 165.141 22.5341C165.01 22.875 164.945 23.2727 164.945 23.7273ZM173.924 27.1321C173.279 27.1321 172.723 26.9943 172.257 26.7188C171.794 26.4403 171.436 26.0497 171.184 25.5469C170.934 25.0412 170.809 24.4489 170.809 23.7699C170.809 23.0994 170.934 22.5085 171.184 21.9972C171.436 21.4858 171.789 21.0866 172.24 20.7997C172.695 20.5128 173.226 20.3693 173.834 20.3693C174.203 20.3693 174.561 20.4304 174.908 20.5526C175.255 20.6747 175.566 20.8665 175.841 21.1278C176.117 21.3892 176.334 21.7287 176.493 22.1463C176.652 22.5611 176.732 23.0653 176.732 23.6591V24.1108H171.529V23.1562H175.483C175.483 22.821 175.415 22.5241 175.279 22.2656C175.142 22.0043 174.951 21.7983 174.703 21.6477C174.459 21.4972 174.172 21.4219 173.843 21.4219C173.485 21.4219 173.172 21.5099 172.905 21.6861C172.641 21.8594 172.436 22.0866 172.292 22.3679C172.15 22.6463 172.078 22.9489 172.078 23.2756V24.0213C172.078 24.4588 172.155 24.831 172.309 25.1378C172.465 25.4446 172.682 25.679 172.961 25.8409C173.239 26 173.564 26.0795 173.936 26.0795C174.178 26.0795 174.398 26.0455 174.597 25.9773C174.796 25.9062 174.968 25.8011 175.113 25.6619C175.257 25.5227 175.368 25.3509 175.445 25.1463L176.651 25.3636C176.554 25.7187 176.381 26.0298 176.131 26.2969C175.884 26.5611 175.573 26.767 175.198 26.9148C174.826 27.0597 174.401 27.1321 173.924 27.1321ZM178.146 27V20.4545H179.377V21.4943H179.445C179.565 21.142 179.775 20.8651 180.076 20.6634C180.38 20.4588 180.724 20.3565 181.107 20.3565C181.187 20.3565 181.281 20.3594 181.388 20.3651C181.499 20.3707 181.586 20.3778 181.648 20.3864V21.6051C181.597 21.5909 181.506 21.5753 181.376 21.5582C181.245 21.5384 181.114 21.5284 180.984 21.5284C180.683 21.5284 180.414 21.5923 180.178 21.7202C179.945 21.8452 179.761 22.0199 179.624 22.2443C179.488 22.4659 179.42 22.7187 179.42 23.0028V27H178.146ZM186.193 20.4545V21.4773H182.618V20.4545H186.193ZM183.577 18.8864H184.851V25.0781C184.851 25.3253 184.888 25.5114 184.962 25.6364C185.036 25.7585 185.131 25.8423 185.247 25.8878C185.366 25.9304 185.496 25.9517 185.635 25.9517C185.737 25.9517 185.827 25.9446 185.903 25.9304C185.98 25.9162 186.04 25.9048 186.082 25.8963L186.312 26.9489C186.239 26.9773 186.134 27.0057 185.997 27.0341C185.861 27.0653 185.69 27.0824 185.486 27.0852C185.151 27.0909 184.838 27.0312 184.548 26.9062C184.259 26.7812 184.024 26.5881 183.845 26.3267C183.666 26.0653 183.577 25.7372 183.577 25.3423V18.8864Z" fill="#043767"/>
</g>
<defs>
<filter id="filter0_dd_12_242" x="0" y="12" width="110" height="110" filterUnits="userSpaceOnUse" color-interpolation-filters="sRGB">
<feFlood flood-opacity="0" result="BackgroundImageFix"/>
<feColorMatrix in="SourceAlpha" type="matrix" values="0 0 0 0 0 0 0 0 0 0 0 0 0 0 0 0 0 0 127 0" result="hardAlpha"/>
<feOffset dy="10"/>
<feGaussianBlur stdDeviation="7.5"/>
<feColorMatrix type="matrix" values="0 0 0 0 0 0 0 0 0 0 0 0 0 0 0 0 0 0 0.1 0"/>
<feBlend mode="normal" in2="BackgroundImageFix" result="effect1_dropShadow_12_242"/>
<feColorMatrix in="SourceAlpha" type="matrix" values="0 0 0 0 0 0 0 0 0 0 0 0 0 0 0 0 0 0 127 0" result="hardAlpha"/>
<feOffset dy="4"/>
<feGaussianBlur stdDeviation="3"/>
<feColorMatrix type="matrix" values="0 0 0 0 0 0 0 0 0 0 0 0 0 0 0 0 0 0 0.1 0"/>
<feBlend mode="normal" in2="effect1_dropShadow_12_242" result="effect2_dropShadow_12_242"/>
<feBlend mode="normal" in="SourceGraphic" in2="effect2_dropShadow_12_242" result="shape"/>
</filter>
<filter id="filter1_dd_12_242" x="57" y="7" width="52" height="52" filterUnits="userSpaceOnUse" color-interpolation-filters="sRGB">
<feFlood flood-opacity="0" result="BackgroundImageFix"/>
<feColorMatrix in="SourceAlpha" type="matrix" values="0 0 0 0 0 0 0 0 0 0 0 0 0 0 0 0 0 0 127 0" result="hardAlpha"/>
<feOffset dy="4"/>
<feGaussianBlur stdDeviation="3"/>
<feColorMatrix type="matrix" values="0 0 0 0 0 0 0 0 0 0 0 0 0 0 0 0 0 0 0.1 0"/>
<feBlend mode="normal" in2="BackgroundImageFix" result="effect1_dropShadow_12_242"/>
<feColorMatrix in="SourceAlpha" type="matrix" values="0 0 0 0 0 0 0 0 0 0 0 0 0 0 0 0 0 0 127 0" result="hardAlpha"/>
<feOffset dy="2"/>
<feGaussianBlur stdDeviation="2"/>
<feColorMatrix type="matrix" values="0 0 0 0 0 0 0 0 0 0 0 0 0 0 0 0 0 0 0.1 0"/>
<feBlend mode="normal" in2="effect1_dropShadow_12_242" result="effect2_dropShadow_12_242"/>
<feBlend mode="normal" in="SourceGraphic" in2="effect2_dropShadow_12_242" result="shape"/>
</filter>
<filter id="filter2_dd_12_242" x="152" y="12" width="110" height="110" filterUnits="userSpaceOnUse" color-interpolation-filters="sRGB">
<feFlood flood-opacity="0" result="BackgroundImageFix"/>
<feColorMatrix in="SourceAlpha" type="matrix" values="0 0 0 0 0 0 0 0 0 0 0 0 0 0 0 0 0 0 127 0" result="hardAlpha"/>
<feOffset dy="10"/>
<feGaussianBlur stdDeviation="7.5"/>
<feColorMatrix type="matrix" values="0 0 0 0 0 0 0 0 0 0 0 0 0 0 0 0 0 0 0.1 0"/>
<feBlend mode="normal" in2="BackgroundImageFix" result="effect1_dropShadow_12_242"/>
<feColorMatrix in="SourceAlpha" type="matrix" values="0 0 0 0 0 0 0 0 0 0 0 0 0 0 0 0 0 0 127 0" result="hardAlpha"/>
<feOffset dy="4"/>
<feGaussianBlur stdDeviation="3"/>
<feColorMatrix type="matrix" values="0 0 0 0 0 0 0 0 0 0 0 0 0 0 0 0 0 0 0.1 0"/>
<feBlend mode="normal" in2="effect1_dropShadow_12_242" result="effect2_dropShadow_12_242"/>
<feBlend mode="normal" in="SourceGraphic" in2="effect2_dropShadow_12_242" result="shape"/>
</filter>
<filter id="filter3_dd_12_242" x="120" y="0" width="95.3281" height="68" filterUnits="userSpaceOnUse" color-interpolation-filters="sRGB">
<feFlood flood-opacity="0" result="BackgroundImageFix"/>
<feColorMatrix in="SourceAlpha" type="matrix" values="0 0 0 0 0 0 0 0 0 0 0 0 0 0 0 0 0 0 127 0" result="hardAlpha"/>
<feOffset dy="10"/>
<feGaussianBlur stdDeviation="7.5"/>
<feColorMatrix type="matrix" values="0 0 0 0 0 0 0 0 0 0 0 0 0 0 0 0 0 0 0.1 0"/>
<feBlend mode="normal" in2="BackgroundImageFix" result="effect1_dropShadow_12_242"/>
<feColorMatrix in="SourceAlpha" type="matrix" values="0 0 0 0 0 0 0 0 0 0 0 0 0 0 0 0 0 0 127 0" result="hardAlpha"/>
<feOffset dy="4"/>
<feGaussianBlur stdDeviation="3"/>
<feColorMatrix type="matrix" values="0 0 0 0 0 0 0 0 0 0 0 0 0 0 0 0 0 0 0.1 0"/>
<feBlend mode="normal" in2="effect1_dropShadow_12_242" result="effect2_dropShadow_12_242"/>
<feBlend mode="normal" in="SourceGraphic" in2="effect2_dropShadow_12_242" result="shape"/>
</filter>
</defs>
</svg>
