<svg width="123" height="163" viewBox="0 0 123 163" fill="none" xmlns="http://www.w3.org/2000/svg">
<path d="M113.5 1.5H9.5C5.08172 1.5 1.5 5.08172 1.5 9.5V153.5C1.5 157.918 5.08172 161.5 9.5 161.5H113.5C117.918 161.5 121.5 157.918 121.5 153.5V9.5C121.5 5.08172 117.918 1.5 113.5 1.5Z" fill="#DBEAFE" stroke="#043767" stroke-width="3"/>
<path d="M110 16.5H13C12.1716 16.5 11.5 17.1716 11.5 18C11.5 18.8284 12.1716 19.5 13 19.5H110C110.828 19.5 111.5 18.8284 111.5 18C111.5 17.1716 110.828 16.5 110 16.5Z" fill="#043767"/>
<path d="M26.5 54.5C30.9183 54.5 34.5 50.9183 34.5 46.5C34.5 42.0817 30.9183 38.5 26.5 38.5C22.0817 38.5 18.5 42.0817 18.5 46.5C18.5 50.9183 22.0817 54.5 26.5 54.5Z" fill="#FEB506" stroke="#043767" stroke-width="2"/>
<path d="M100 41.5H43C42.1716 41.5 41.5 42.1716 41.5 43C41.5 43.8284 42.1716 44.5 43 44.5H100C100.828 44.5 101.5 43.8284 101.5 43C101.5 42.1716 100.828 41.5 100 41.5Z" fill="#043767"/>
<path d="M85.5 49.5H42.5C41.9477 49.5 41.5 49.9477 41.5 50.5C41.5 51.0523 41.9477 51.5 42.5 51.5H85.5C86.0523 51.5 86.5 51.0523 86.5 50.5C86.5 49.9477 86.0523 49.5 85.5 49.5Z" fill="#8C8C8C"/>
<path d="M26.5 84.5C30.9183 84.5 34.5 80.9183 34.5 76.5C34.5 72.0817 30.9183 68.5 26.5 68.5C22.0817 68.5 18.5 72.0817 18.5 76.5C18.5 80.9183 22.0817 84.5 26.5 84.5Z" fill="#FEB506" stroke="#043767" stroke-width="2"/>
<path d="M100 71.5H43C42.1716 71.5 41.5 72.1716 41.5 73C41.5 73.8284 42.1716 74.5 43 74.5H100C100.828 74.5 101.5 73.8284 101.5 73C101.5 72.1716 100.828 71.5 100 71.5Z" fill="#043767"/>
<path d="M90.5 79.5H42.5C41.9477 79.5 41.5 79.9477 41.5 80.5C41.5 81.0523 41.9477 81.5 42.5 81.5H90.5C91.0523 81.5 91.5 81.0523 91.5 80.5C91.5 79.9477 91.0523 79.5 90.5 79.5Z" fill="#8C8C8C"/>
<path d="M26.5 114.5C30.9183 114.5 34.5 110.918 34.5 106.5C34.5 102.082 30.9183 98.5 26.5 98.5C22.0817 98.5 18.5 102.082 18.5 106.5C18.5 110.918 22.0817 114.5 26.5 114.5Z" fill="#FEB506" stroke="#043767" stroke-width="2"/>
<path d="M100 101.5H43C42.1716 101.5 41.5 102.172 41.5 103C41.5 103.828 42.1716 104.5 43 104.5H100C100.828 104.5 101.5 103.828 101.5 103C101.5 102.172 100.828 101.5 100 101.5Z" fill="#043767"/>
<path d="M80.5 109.5H42.5C41.9477 109.5 41.5 109.948 41.5 110.5C41.5 111.052 41.9477 111.5 42.5 111.5H80.5C81.0523 111.5 81.5 111.052 81.5 110.5C81.5 109.948 81.0523 109.5 80.5 109.5Z" fill="#8C8C8C"/>
<path d="M26.5 144.5C30.9183 144.5 34.5 140.918 34.5 136.5C34.5 132.082 30.9183 128.5 26.5 128.5C22.0817 128.5 18.5 132.082 18.5 136.5C18.5 140.918 22.0817 144.5 26.5 144.5Z" fill="white" stroke="#043767" stroke-width="2"/>
<path d="M100 131.5H43C42.1716 131.5 41.5 132.172 41.5 133C41.5 133.828 42.1716 134.5 43 134.5H100C100.828 134.5 101.5 133.828 101.5 133C101.5 132.172 100.828 131.5 100 131.5Z" fill="#043767"/>
<path d="M95.5 139.5H42.5C41.9477 139.5 41.5 139.948 41.5 140.5C41.5 141.052 41.9477 141.5 42.5 141.5H95.5C96.0523 141.5 96.5 141.052 96.5 140.5C96.5 139.948 96.0523 139.5 95.5 139.5Z" fill="#8C8C8C"/>
<path d="M23.5 46.5L25.5 48.5L29.5 44.5" stroke="#043767" stroke-width="2" stroke-linecap="round" stroke-linejoin="round"/>
<path d="M23.5 76.5L25.5 78.5L29.5 74.5" stroke="#043767" stroke-width="2" stroke-linecap="round" stroke-linejoin="round"/>
<path d="M23.5 106.5L25.5 108.5L29.5 104.5" stroke="#043767" stroke-width="2" stroke-linecap="round" stroke-linejoin="round"/>
</svg>
