<svg width="216" height="209" viewBox="0 0 216 209" fill="none" xmlns="http://www.w3.org/2000/svg">
<g opacity="0.2">
<path d="M12 104C12 50.9807 54.9807 8 108 8C161.019 8 204 50.9807 204 104C204 157.019 161.019 200 108 200C54.9807 200 12 157.019 12 104Z" fill="#FEB506"/>
</g>
<g filter="url(#filter0_dd_10_1269)">
<path d="M28 104C28 59.8172 63.8172 24 108 24C152.183 24 188 59.8172 188 104C188 148.183 152.183 184 108 184C63.8172 184 28 148.183 28 104Z" fill="white"/>
<path d="M108 25C151.63 25 187 60.3695 187 104C187 147.63 151.63 183 108 183C64.3695 183 29 147.63 29 104C29 60.3695 64.3695 25 108 25Z" stroke="#043767" stroke-width="2"/>
<path d="M44 104C44 68.6538 72.6538 40 108 40C143.346 40 172 68.6538 172 104C172 139.346 143.346 168 108 168C72.6538 168 44 139.346 44 104Z" fill="url(#paint0_linear_10_1269)"/>
<path d="M65.8547 54.9355C65.8547 53.831 66.7502 52.9355 67.8547 52.9355H100.145C101.25 52.9355 102.145 53.831 102.145 54.9355V81.0643C102.145 82.1688 101.25 83.0643 100.145 83.0643H67.8547C66.7502 83.0643 65.8547 82.1688 65.8547 81.0643V54.9355Z" fill="#86EFAC"/>
<path d="M131.229 72.7891C131.229 71.6845 132.125 70.7891 133.229 70.7891H154.77C155.875 70.7891 156.77 71.6845 156.77 72.7891V87.2101C156.77 88.3147 155.875 89.2101 154.77 89.2101H133.229C132.125 89.2101 131.229 88.3147 131.229 87.2101V72.7891Z" fill="#4ADE80"/>
<path d="M59.5042 124.967C59.5042 123.862 60.3996 122.967 61.5042 122.967H98.496C99.6006 122.967 100.496 123.862 100.496 124.967V143.033C100.496 144.137 99.6006 145.033 98.496 145.033H61.5041C60.3996 145.033 59.5042 144.137 59.5042 143.033V124.967Z" fill="#86EFAC"/>
<path d="M118.643 119.264C118.643 118.159 119.538 117.264 120.643 117.264H147.357C148.462 117.264 149.357 118.159 149.357 119.264V136.736C149.357 137.84 148.462 138.736 147.357 138.736H120.643C119.538 138.736 118.643 137.84 118.643 136.736V119.264Z" fill="#4ADE80"/>
<g opacity="0.3">
<rect width="4" height="32" transform="translate(106 64)" fill="#043767"/>
</g>
<g opacity="0.3">
<rect width="32" height="4" transform="translate(52 102)" fill="#043767"/>
</g>
<g opacity="0.3">
<rect width="32" height="4" transform="translate(132 102)" fill="#043767"/>
</g>
</g>
<path d="M44 12C44 5.37258 49.3726 0 56 0C62.6274 0 68 5.37258 68 12C68 18.6274 62.6274 24 56 24C49.3726 24 44 18.6274 44 12Z" fill="#FEB506"/>
<path d="M56 11.5C56.7956 11.5 57.5587 11.1839 58.1213 10.6213C58.6839 10.0587 59 9.29565 59 8.5C59 7.70435 58.6839 6.94129 58.1213 6.37868C57.5587 5.81607 56.7956 5.5 56 5.5C55.2044 5.5 54.4413 5.81607 53.8787 6.37868C53.3161 6.94129 53 7.70435 53 8.5C53 9.29565 53.3161 10.0587 53.8787 10.6213C54.4413 11.1839 55.2044 11.5 56 11.5ZM54.9289 12.625C52.6203 12.625 50.75 14.4953 50.75 16.8039C50.75 17.1883 51.0617 17.5 51.4461 17.5H60.5539C60.9383 17.5 61.25 17.1883 61.25 16.8039C61.25 14.4953 59.3797 12.625 57.0711 12.625H54.9289Z" fill="#043767"/>
<path d="M188 68C188 61.3726 193.373 56 200 56C206.627 56 212 61.3726 212 68C212 74.6274 206.627 80 200 80C193.373 80 188 74.6274 188 68Z" fill="#FEB506"/>
<path d="M200 67.5C200.796 67.5 201.559 67.1839 202.121 66.6213C202.684 66.0587 203 65.2956 203 64.5C203 63.7044 202.684 62.9413 202.121 62.3787C201.559 61.8161 200.796 61.5 200 61.5C199.204 61.5 198.441 61.8161 197.879 62.3787C197.316 62.9413 197 63.7044 197 64.5C197 65.2956 197.316 66.0587 197.879 66.6213C198.441 67.1839 199.204 67.5 200 67.5ZM198.929 68.625C196.62 68.625 194.75 70.4953 194.75 72.8039C194.75 73.1883 195.062 73.5 195.446 73.5H204.554C204.938 73.5 205.25 73.1883 205.25 72.8039C205.25 70.4953 203.38 68.625 201.071 68.625H198.929Z" fill="#043767"/>
<path d="M4 156C4 149.373 9.37258 144 16 144C22.6274 144 28 149.373 28 156C28 162.627 22.6274 168 16 168C9.37258 168 4 162.627 4 156Z" fill="#FEB506"/>
<path d="M16 155.5C16.7956 155.5 17.5587 155.184 18.1213 154.621C18.6839 154.059 19 153.296 19 152.5C19 151.704 18.6839 150.941 18.1213 150.379C17.5587 149.816 16.7956 149.5 16 149.5C15.2044 149.5 14.4413 149.816 13.8787 150.379C13.3161 150.941 13 151.704 13 152.5C13 153.296 13.3161 154.059 13.8787 154.621C14.4413 155.184 15.2044 155.5 16 155.5ZM14.9289 156.625C12.6203 156.625 10.75 158.495 10.75 160.804C10.75 161.188 11.0617 161.5 11.4461 161.5H20.5539C20.9383 161.5 21.25 161.188 21.25 160.804C21.25 158.495 19.3797 156.625 17.0711 156.625H14.9289Z" fill="#043767"/>
<path d="M132 196C132 189.373 137.373 184 144 184C150.627 184 156 189.373 156 196C156 202.627 150.627 208 144 208C137.373 208 132 202.627 132 196Z" fill="#FEB506"/>
<path d="M144 195.5C144.796 195.5 145.559 195.184 146.121 194.621C146.684 194.059 147 193.296 147 192.5C147 191.704 146.684 190.941 146.121 190.379C145.559 189.816 144.796 189.5 144 189.5C143.204 189.5 142.441 189.816 141.879 190.379C141.316 190.941 141 191.704 141 192.5C141 193.296 141.316 194.059 141.879 194.621C142.441 195.184 143.204 195.5 144 195.5ZM142.929 196.625C140.62 196.625 138.75 198.495 138.75 200.804C138.75 201.188 139.062 201.5 139.446 201.5H148.554C148.938 201.5 149.25 201.188 149.25 200.804C149.25 198.495 147.38 196.625 145.071 196.625H142.929Z" fill="#043767"/>
<path d="M0 104C0 97.3726 5.37258 92 12 92C18.6274 92 24 97.3726 24 104C24 110.627 18.6274 116 12 116C5.37258 116 0 110.627 0 104Z" fill="#FEB506"/>
<path d="M12 103.5C12.7956 103.5 13.5587 103.184 14.1213 102.621C14.6839 102.059 15 101.296 15 100.5C15 99.7044 14.6839 98.9413 14.1213 98.3787C13.5587 97.8161 12.7956 97.5 12 97.5C11.2044 97.5 10.4413 97.8161 9.87868 98.3787C9.31607 98.9413 9 99.7044 9 100.5C9 101.296 9.31607 102.059 9.87868 102.621C10.4413 103.184 11.2044 103.5 12 103.5ZM10.9289 104.625C8.62031 104.625 6.75 106.495 6.75 108.804C6.75 109.188 7.06172 109.5 7.44609 109.5H16.5539C16.9383 109.5 17.25 109.188 17.25 108.804C17.25 106.495 15.3797 104.625 13.0711 104.625H10.9289Z" fill="#043767"/>
<path d="M192 104C192 97.3726 197.373 92 204 92C210.627 92 216 97.3726 216 104C216 110.627 210.627 116 204 116C197.373 116 192 110.627 192 104Z" fill="#FEB506"/>
<path d="M204 103.5C204.796 103.5 205.559 103.184 206.121 102.621C206.684 102.059 207 101.296 207 100.5C207 99.7044 206.684 98.9413 206.121 98.3787C205.559 97.8161 204.796 97.5 204 97.5C203.204 97.5 202.441 97.8161 201.879 98.3787C201.316 98.9413 201 99.7044 201 100.5C201 101.296 201.316 102.059 201.879 102.621C202.441 103.184 203.204 103.5 204 103.5ZM202.929 104.625C200.62 104.625 198.75 106.495 198.75 108.804C198.75 109.188 199.062 109.5 199.446 109.5H208.554C208.938 109.5 209.25 109.188 209.25 108.804C209.25 106.495 207.38 104.625 205.071 104.625H202.929Z" fill="#043767"/>
<defs>
<filter id="filter0_dd_10_1269" x="13" y="19" width="190" height="190" filterUnits="userSpaceOnUse" color-interpolation-filters="sRGB">
<feFlood flood-opacity="0" result="BackgroundImageFix"/>
<feColorMatrix in="SourceAlpha" type="matrix" values="0 0 0 0 0 0 0 0 0 0 0 0 0 0 0 0 0 0 127 0" result="hardAlpha"/>
<feOffset dy="10"/>
<feGaussianBlur stdDeviation="7.5"/>
<feColorMatrix type="matrix" values="0 0 0 0 0 0 0 0 0 0 0 0 0 0 0 0 0 0 0.1 0"/>
<feBlend mode="normal" in2="BackgroundImageFix" result="effect1_dropShadow_10_1269"/>
<feColorMatrix in="SourceAlpha" type="matrix" values="0 0 0 0 0 0 0 0 0 0 0 0 0 0 0 0 0 0 127 0" result="hardAlpha"/>
<feOffset dy="4"/>
<feGaussianBlur stdDeviation="3"/>
<feColorMatrix type="matrix" values="0 0 0 0 0 0 0 0 0 0 0 0 0 0 0 0 0 0 0.1 0"/>
<feBlend mode="normal" in2="effect1_dropShadow_10_1269" result="effect2_dropShadow_10_1269"/>
<feBlend mode="normal" in="SourceGraphic" in2="effect2_dropShadow_10_1269" result="shape"/>
</filter>
<linearGradient id="paint0_linear_10_1269" x1="-1.25483" y1="85.2548" x2="89.2548" y2="175.765" gradientUnits="userSpaceOnUse">
<stop stop-color="#DBEAFE"/>
<stop offset="1" stop-color="#BFDBFE"/>
</linearGradient>
</defs>
</svg>
